<?xml version="1.0" encoding="iso-8859-1"?>
<!-- Generator: Adobe Illustrator 19.0.0, SVG Export Plug-In . SVG Version: 6.00 Build 0)  -->
<svg version="1.1" id="Layer_1" xmlns="http://www.w3.org/2000/svg" xmlns:xlink="http://www.w3.org/1999/xlink" x="0px" y="0px"
	 viewBox="0 0 512 512" style="enable-background:new 0 0 512 512;" xml:space="preserve">
<g>
	<g>
		<g>
			<path d="M498.534,392.533h-3.601V102.4c0-18.825-15.309-34.133-34.133-34.133H51.2c-18.825,0-34.133,15.309-34.133,34.133
				v290.133h-3.601C6.042,392.533,0,398.575,0,405.999v24.269c0,7.424,6.042,13.466,13.466,13.466h485.069
				c7.424,0,13.466-6.042,13.466-13.466v-24.269C512,398.575,505.958,392.533,498.534,392.533z M51.2,110.933
				c0-4.71,3.823-8.533,8.533-8.533h392.533c4.71,0,8.533,3.823,8.533,8.533v256c0,4.71-3.823,8.533-8.533,8.533H59.733
				c-4.71,0-8.533-3.823-8.533-8.533V110.933z M494.933,426.667H17.067V409.6h192.068c3.968,5.265,10.223,8.533,16.998,8.533H294.4
				c6.775,0,13.03-3.268,16.998-8.533h183.535V426.667z"/>
			<path d="M443.733,119.467H68.267V358.4h375.467V119.467z M170.667,273.067c0,4.71-3.823,8.533-8.533,8.533
				c-4.71,0-8.533-3.823-8.533-8.533v-25.6h-34.133v25.6c0,4.71-3.823,8.533-8.533,8.533s-8.533-3.823-8.533-8.533V204.8
				c0-4.71,3.823-8.533,8.533-8.533s8.533,3.823,8.533,8.533v25.6H153.6v-25.6c0-4.71,3.823-8.533,8.533-8.533
				c4.71,0,8.533,3.823,8.533,8.533V273.067z M247.467,213.333H230.4v59.733c0,4.71-3.823,8.533-8.533,8.533
				c-4.71,0-8.533-3.823-8.533-8.533v-59.733h-17.067c-4.71,0-8.533-3.823-8.533-8.533s3.823-8.533,8.533-8.533h51.2
				c4.71,0,8.533,3.823,8.533,8.533S252.177,213.333,247.467,213.333z M341.333,273.067c0,4.71-3.823,8.533-8.533,8.533
				c-4.71,0-8.533-3.823-8.533-8.533V230.4l-10.24,13.653c-3.217,4.301-10.436,4.301-13.653,0l-10.24-13.653v42.667
				c0,4.71-3.823,8.533-8.533,8.533s-8.533-3.823-8.533-8.533V204.8c0-3.678,2.347-6.938,5.837-8.098
				c3.482-1.161,7.322,0.043,9.523,2.978l18.773,25.028l18.773-25.028c2.21-2.935,6.05-4.13,9.523-2.978
				c3.49,1.161,5.837,4.42,5.837,8.098V273.067z M401.067,281.6h-34.133c-4.71,0-8.533-3.823-8.533-8.533V204.8
				c0-4.71,3.823-8.533,8.533-8.533s8.533,3.823,8.533,8.533v59.733h25.6c4.71,0,8.533,3.823,8.533,8.533
				C409.6,277.777,405.777,281.6,401.067,281.6z"/>
		</g>
	</g>
</g>
<g>
</g>
<g>
</g>
<g>
</g>
<g>
</g>
<g>
</g>
<g>
</g>
<g>
</g>
<g>
</g>
<g>
</g>
<g>
</g>
<g>
</g>
<g>
</g>
<g>
</g>
<g>
</g>
<g>
</g>
</svg>
